<mxfile host="app.diagrams.net" agent="Mozilla/5.0 (Macintosh; Intel Mac OS X 10_15_7) AppleWebKit/537.36 (KHTML, like Gecko) Chrome/135.0.0.0 Safari/537.36" version="26.1.3">
  <diagram name="페이지-1" id="8mMjFByBqZ8wEZKrKUkN">
    <mxGraphModel dx="1728" dy="2363" grid="0" gridSize="10" guides="1" tooltips="1" connect="1" arrows="1" fold="1" page="1" pageScale="1" pageWidth="1600" pageHeight="1400" math="0" shadow="0">
      <root>
        <mxCell id="0" />
        <mxCell id="1" parent="0" />
        <mxCell id="QOJlggBWHbBiH2H2tHko-1" value="S1ESP Side" style="shape=umlFrame;whiteSpace=wrap;html=1;pointerEvents=0;width=130;height=30;" vertex="1" parent="1">
          <mxGeometry x="899" y="-1216" width="610" height="410" as="geometry" />
        </mxCell>
        <mxCell id="QOJlggBWHbBiH2H2tHko-2" value="3rdParty Side" style="shape=umlFrame;whiteSpace=wrap;html=1;pointerEvents=0;width=130;height=30;" vertex="1" parent="1">
          <mxGeometry x="897" y="-792" width="610" height="410" as="geometry" />
        </mxCell>
        <mxCell id="QOJlggBWHbBiH2H2tHko-6" style="edgeStyle=orthogonalEdgeStyle;rounded=0;orthogonalLoop=1;jettySize=auto;html=1;" edge="1" parent="1" source="QOJlggBWHbBiH2H2tHko-3" target="QOJlggBWHbBiH2H2tHko-20">
          <mxGeometry relative="1" as="geometry" />
        </mxCell>
        <mxCell id="QOJlggBWHbBiH2H2tHko-7" value="login" style="edgeLabel;html=1;align=center;verticalAlign=middle;resizable=0;points=[];" vertex="1" connectable="0" parent="QOJlggBWHbBiH2H2tHko-6">
          <mxGeometry x="-0.372" y="2" relative="1" as="geometry">
            <mxPoint x="17" y="-9" as="offset" />
          </mxGeometry>
        </mxCell>
        <mxCell id="QOJlggBWHbBiH2H2tHko-3" value="Users" style="shape=umlActor;verticalLabelPosition=bottom;verticalAlign=top;html=1;outlineConnect=0;" vertex="1" parent="1">
          <mxGeometry x="79" y="-941.5" width="30" height="60" as="geometry" />
        </mxCell>
        <mxCell id="QOJlggBWHbBiH2H2tHko-14" style="edgeStyle=orthogonalEdgeStyle;rounded=0;orthogonalLoop=1;jettySize=auto;html=1;entryX=1;entryY=0.75;entryDx=0;entryDy=0;exitX=0;exitY=0.75;exitDx=0;exitDy=0;" edge="1" parent="1" source="QOJlggBWHbBiH2H2tHko-4" target="QOJlggBWHbBiH2H2tHko-5">
          <mxGeometry relative="1" as="geometry" />
        </mxCell>
        <mxCell id="QOJlggBWHbBiH2H2tHko-15" value="sso token / refresh sso token" style="edgeLabel;html=1;align=center;verticalAlign=middle;resizable=0;points=[];" vertex="1" connectable="0" parent="QOJlggBWHbBiH2H2tHko-14">
          <mxGeometry x="0.0604" y="2" relative="1" as="geometry">
            <mxPoint x="2" y="9" as="offset" />
          </mxGeometry>
        </mxCell>
        <mxCell id="QOJlggBWHbBiH2H2tHko-4" value="&lt;div&gt;&lt;span style=&quot;background-color: transparent; color: light-dark(rgb(0, 0, 0), rgb(255, 255, 255));&quot;&gt;API Server&lt;/span&gt;&lt;/div&gt;" style="rounded=1;whiteSpace=wrap;html=1;" vertex="1" parent="1">
          <mxGeometry x="1281" y="-1053" width="120" height="60" as="geometry" />
        </mxCell>
        <mxCell id="QOJlggBWHbBiH2H2tHko-8" style="edgeStyle=orthogonalEdgeStyle;rounded=0;orthogonalLoop=1;jettySize=auto;html=1;" edge="1" parent="1" source="QOJlggBWHbBiH2H2tHko-5" target="QOJlggBWHbBiH2H2tHko-4">
          <mxGeometry relative="1" as="geometry" />
        </mxCell>
        <mxCell id="QOJlggBWHbBiH2H2tHko-9" value="request sso token" style="edgeLabel;html=1;align=center;verticalAlign=middle;resizable=0;points=[];" vertex="1" connectable="0" parent="QOJlggBWHbBiH2H2tHko-8">
          <mxGeometry x="-0.2231" relative="1" as="geometry">
            <mxPoint x="14" y="-11" as="offset" />
          </mxGeometry>
        </mxCell>
        <mxCell id="QOJlggBWHbBiH2H2tHko-5" value="FE Server" style="rounded=1;whiteSpace=wrap;html=1;" vertex="1" parent="1">
          <mxGeometry x="1012" y="-1053" width="120" height="60" as="geometry" />
        </mxCell>
        <mxCell id="QOJlggBWHbBiH2H2tHko-32" style="edgeStyle=orthogonalEdgeStyle;rounded=0;orthogonalLoop=1;jettySize=auto;html=1;" edge="1" parent="1" source="QOJlggBWHbBiH2H2tHko-10" target="QOJlggBWHbBiH2H2tHko-11">
          <mxGeometry relative="1" as="geometry" />
        </mxCell>
        <mxCell id="QOJlggBWHbBiH2H2tHko-35" value="sso token" style="edgeLabel;html=1;align=center;verticalAlign=middle;resizable=0;points=[];" vertex="1" connectable="0" parent="QOJlggBWHbBiH2H2tHko-32">
          <mxGeometry x="-0.1195" y="1" relative="1" as="geometry">
            <mxPoint x="4" y="-10" as="offset" />
          </mxGeometry>
        </mxCell>
        <mxCell id="QOJlggBWHbBiH2H2tHko-10" value="FE Server" style="rounded=1;whiteSpace=wrap;html=1;" vertex="1" parent="1">
          <mxGeometry x="1004.5" y="-617" width="120" height="60" as="geometry" />
        </mxCell>
        <mxCell id="QOJlggBWHbBiH2H2tHko-36" style="edgeStyle=orthogonalEdgeStyle;rounded=0;orthogonalLoop=1;jettySize=auto;html=1;entryX=1;entryY=0.75;entryDx=0;entryDy=0;" edge="1" parent="1" source="QOJlggBWHbBiH2H2tHko-11" target="QOJlggBWHbBiH2H2tHko-10">
          <mxGeometry relative="1" as="geometry">
            <Array as="points">
              <mxPoint x="1247" y="-572" />
              <mxPoint x="1247" y="-572" />
            </Array>
          </mxGeometry>
        </mxCell>
        <mxCell id="QOJlggBWHbBiH2H2tHko-37" value="3rd-party auth token" style="edgeLabel;html=1;align=center;verticalAlign=middle;resizable=0;points=[];" vertex="1" connectable="0" parent="QOJlggBWHbBiH2H2tHko-36">
          <mxGeometry x="0.0755" y="-4" relative="1" as="geometry">
            <mxPoint x="7" y="13" as="offset" />
          </mxGeometry>
        </mxCell>
        <mxCell id="QOJlggBWHbBiH2H2tHko-11" value="&lt;div&gt;&lt;span style=&quot;background-color: transparent; color: light-dark(rgb(0, 0, 0), rgb(255, 255, 255));&quot;&gt;API Server&lt;/span&gt;&lt;/div&gt;" style="rounded=1;whiteSpace=wrap;html=1;" vertex="1" parent="1">
          <mxGeometry x="1281" y="-617" width="120" height="60" as="geometry" />
        </mxCell>
        <mxCell id="QOJlggBWHbBiH2H2tHko-24" style="edgeStyle=orthogonalEdgeStyle;rounded=0;orthogonalLoop=1;jettySize=auto;html=1;" edge="1" parent="1" target="QOJlggBWHbBiH2H2tHko-5">
          <mxGeometry relative="1" as="geometry">
            <mxPoint x="727" y="-1023" as="sourcePoint" />
          </mxGeometry>
        </mxCell>
        <mxCell id="QOJlggBWHbBiH2H2tHko-59" value="request login" style="edgeLabel;html=1;align=center;verticalAlign=middle;resizable=0;points=[];" vertex="1" connectable="0" parent="QOJlggBWHbBiH2H2tHko-24">
          <mxGeometry x="-0.1244" relative="1" as="geometry">
            <mxPoint x="-20" y="-11" as="offset" />
          </mxGeometry>
        </mxCell>
        <mxCell id="QOJlggBWHbBiH2H2tHko-20" value="" style="strokeWidth=1;shadow=0;dashed=0;align=center;html=1;shape=mxgraph.mockup.containers.browserWindow;rSize=0;strokeColor=#666666;strokeColor2=#008cff;strokeColor3=#c4c4c4;mainText=,;recursiveResize=0;" vertex="1" parent="1">
          <mxGeometry x="334" y="-1186" width="397" height="549" as="geometry" />
        </mxCell>
        <mxCell id="QOJlggBWHbBiH2H2tHko-21" value="Page 1" style="strokeWidth=1;shadow=0;dashed=0;align=center;html=1;shape=mxgraph.mockup.containers.anchor;fontSize=17;fontColor=#666666;align=left;whiteSpace=wrap;" vertex="1" parent="QOJlggBWHbBiH2H2tHko-20">
          <mxGeometry x="60" y="12" width="110" height="26" as="geometry" />
        </mxCell>
        <mxCell id="QOJlggBWHbBiH2H2tHko-22" value="https://s1esp.com" style="strokeWidth=1;shadow=0;dashed=0;align=center;html=1;shape=mxgraph.mockup.containers.anchor;rSize=0;fontSize=17;fontColor=#666666;align=left;" vertex="1" parent="QOJlggBWHbBiH2H2tHko-20">
          <mxGeometry x="130" y="60" width="250" height="26" as="geometry" />
        </mxCell>
        <mxCell id="QOJlggBWHbBiH2H2tHko-27" value="Cookie" style="label;whiteSpace=wrap;html=1;align=center;verticalAlign=bottom;spacingLeft=0;spacingBottom=4;imageAlign=center;imageVerticalAlign=top;image=img/clipart/Gear_128x128.png" vertex="1" parent="QOJlggBWHbBiH2H2tHko-20">
          <mxGeometry x="138" y="139" width="120" height="80" as="geometry" />
        </mxCell>
        <mxCell id="QOJlggBWHbBiH2H2tHko-28" value="iframe" style="shape=umlFrame;whiteSpace=wrap;html=1;pointerEvents=0;width=76;height=27;" vertex="1" parent="QOJlggBWHbBiH2H2tHko-20">
          <mxGeometry x="98" y="387" width="168" height="104" as="geometry" />
        </mxCell>
        <mxCell id="QOJlggBWHbBiH2H2tHko-63" value="set-cookie(new sso token)" style="edgeStyle=orthogonalEdgeStyle;rounded=0;orthogonalLoop=1;jettySize=auto;html=1;entryX=0.5;entryY=1;entryDx=0;entryDy=0;" edge="1" parent="QOJlggBWHbBiH2H2tHko-20" source="QOJlggBWHbBiH2H2tHko-48" target="QOJlggBWHbBiH2H2tHko-27">
          <mxGeometry relative="1" as="geometry" />
        </mxCell>
        <mxCell id="QOJlggBWHbBiH2H2tHko-48" value="sso token&lt;br&gt;Manager" style="ellipse;whiteSpace=wrap;html=1;" vertex="1" parent="QOJlggBWHbBiH2H2tHko-20">
          <mxGeometry x="162" y="292" width="72" height="49" as="geometry" />
        </mxCell>
        <mxCell id="QOJlggBWHbBiH2H2tHko-62" style="edgeStyle=orthogonalEdgeStyle;rounded=0;orthogonalLoop=1;jettySize=auto;html=1;exitX=0.5;exitY=1;exitDx=0;exitDy=0;" edge="1" parent="QOJlggBWHbBiH2H2tHko-20" source="QOJlggBWHbBiH2H2tHko-48" target="QOJlggBWHbBiH2H2tHko-48">
          <mxGeometry relative="1" as="geometry" />
        </mxCell>
        <mxCell id="QOJlggBWHbBiH2H2tHko-64" style="edgeStyle=orthogonalEdgeStyle;rounded=0;orthogonalLoop=1;jettySize=auto;html=1;entryX=0.006;entryY=0.519;entryDx=0;entryDy=0;entryPerimeter=0;curved=1;dashed=1;" edge="1" parent="QOJlggBWHbBiH2H2tHko-20" source="QOJlggBWHbBiH2H2tHko-27" target="QOJlggBWHbBiH2H2tHko-28">
          <mxGeometry relative="1" as="geometry">
            <Array as="points">
              <mxPoint x="45" y="179" />
              <mxPoint x="45" y="441" />
            </Array>
          </mxGeometry>
        </mxCell>
        <mxCell id="QOJlggBWHbBiH2H2tHko-65" value="use" style="edgeLabel;html=1;align=center;verticalAlign=middle;resizable=0;points=[];" vertex="1" connectable="0" parent="QOJlggBWHbBiH2H2tHko-64">
          <mxGeometry x="0.1296" relative="1" as="geometry">
            <mxPoint as="offset" />
          </mxGeometry>
        </mxCell>
        <mxCell id="QOJlggBWHbBiH2H2tHko-25" style="edgeStyle=orthogonalEdgeStyle;rounded=0;orthogonalLoop=1;jettySize=auto;html=1;entryX=1;entryY=0.5;entryDx=0;entryDy=0;" edge="1" parent="1" source="QOJlggBWHbBiH2H2tHko-5" target="QOJlggBWHbBiH2H2tHko-27">
          <mxGeometry relative="1" as="geometry">
            <Array as="points">
              <mxPoint x="869" y="-1007" />
              <mxPoint x="869" y="-1007" />
            </Array>
          </mxGeometry>
        </mxCell>
        <mxCell id="QOJlggBWHbBiH2H2tHko-26" value="sso token / refresh sso token" style="edgeLabel;html=1;align=center;verticalAlign=middle;resizable=0;points=[];" vertex="1" connectable="0" parent="QOJlggBWHbBiH2H2tHko-25">
          <mxGeometry x="0.6203" y="-1" relative="1" as="geometry">
            <mxPoint x="144" y="17" as="offset" />
          </mxGeometry>
        </mxCell>
        <mxCell id="QOJlggBWHbBiH2H2tHko-45" value="set-cookie : https://3rd-party.com :: sso-token" style="edgeLabel;html=1;align=center;verticalAlign=middle;resizable=0;points=[];" vertex="1" connectable="0" parent="QOJlggBWHbBiH2H2tHko-25">
          <mxGeometry x="0.6314" y="1" relative="1" as="geometry">
            <mxPoint x="-77" y="-54" as="offset" />
          </mxGeometry>
        </mxCell>
        <mxCell id="QOJlggBWHbBiH2H2tHko-31" style="edgeStyle=orthogonalEdgeStyle;rounded=0;orthogonalLoop=1;jettySize=auto;html=1;entryX=0;entryY=0.5;entryDx=0;entryDy=0;curved=1;dashed=1;" edge="1" parent="1" source="QOJlggBWHbBiH2H2tHko-28" target="QOJlggBWHbBiH2H2tHko-10">
          <mxGeometry relative="1" as="geometry" />
        </mxCell>
        <mxCell id="QOJlggBWHbBiH2H2tHko-33" value="GET / https://3rd-party.com" style="edgeLabel;html=1;align=center;verticalAlign=middle;resizable=0;points=[];" vertex="1" connectable="0" parent="QOJlggBWHbBiH2H2tHko-31">
          <mxGeometry x="0.0383" y="5" relative="1" as="geometry">
            <mxPoint x="-130" y="-108" as="offset" />
          </mxGeometry>
        </mxCell>
        <mxCell id="QOJlggBWHbBiH2H2tHko-67" value="sso token" style="edgeLabel;html=1;align=center;verticalAlign=middle;resizable=0;points=[];" vertex="1" connectable="0" parent="QOJlggBWHbBiH2H2tHko-31">
          <mxGeometry x="-0.101" y="-10" relative="1" as="geometry">
            <mxPoint as="offset" />
          </mxGeometry>
        </mxCell>
        <mxCell id="QOJlggBWHbBiH2H2tHko-42" value="" style="image;sketch=0;aspect=fixed;html=1;points=[];align=center;fontSize=12;image=img/lib/mscae/Cache_Redis_Product.svg;" vertex="1" parent="1">
          <mxGeometry x="1420" y="-961" width="45" height="37.8" as="geometry" />
        </mxCell>
        <mxCell id="QOJlggBWHbBiH2H2tHko-43" style="edgeStyle=orthogonalEdgeStyle;rounded=0;orthogonalLoop=1;jettySize=auto;html=1;entryX=0.6;entryY=0.079;entryDx=0;entryDy=0;entryPerimeter=0;curved=1;startArrow=classic;startFill=1;" edge="1" parent="1" source="QOJlggBWHbBiH2H2tHko-4" target="QOJlggBWHbBiH2H2tHko-42">
          <mxGeometry relative="1" as="geometry" />
        </mxCell>
        <mxCell id="QOJlggBWHbBiH2H2tHko-44" value="sso refresh token" style="edgeLabel;html=1;align=center;verticalAlign=middle;resizable=0;points=[];" vertex="1" connectable="0" parent="QOJlggBWHbBiH2H2tHko-43">
          <mxGeometry x="-0.4414" y="-14" relative="1" as="geometry">
            <mxPoint x="8" y="23" as="offset" />
          </mxGeometry>
        </mxCell>
        <mxCell id="QOJlggBWHbBiH2H2tHko-52" style="edgeStyle=orthogonalEdgeStyle;rounded=0;orthogonalLoop=1;jettySize=auto;html=1;exitX=1;exitY=0.5;exitDx=0;exitDy=0;entryX=0.433;entryY=0.983;entryDx=0;entryDy=0;entryPerimeter=0;" edge="1" parent="1" source="QOJlggBWHbBiH2H2tHko-48" target="QOJlggBWHbBiH2H2tHko-4">
          <mxGeometry relative="1" as="geometry">
            <Array as="points">
              <mxPoint x="568" y="-868" />
              <mxPoint x="1333" y="-868" />
            </Array>
          </mxGeometry>
        </mxCell>
        <mxCell id="QOJlggBWHbBiH2H2tHko-53" value="request new token" style="edgeLabel;html=1;align=center;verticalAlign=middle;resizable=0;points=[];" vertex="1" connectable="0" parent="QOJlggBWHbBiH2H2tHko-52">
          <mxGeometry x="-0.2307" y="3" relative="1" as="geometry">
            <mxPoint x="-91" y="-10" as="offset" />
          </mxGeometry>
        </mxCell>
        <mxCell id="QOJlggBWHbBiH2H2tHko-56" style="rounded=0;orthogonalLoop=1;jettySize=auto;html=1;startArrow=classic;startFill=1;endArrow=none;edgeStyle=orthogonalEdgeStyle;entryX=0.5;entryY=1;entryDx=0;entryDy=0;" edge="1" parent="1" source="QOJlggBWHbBiH2H2tHko-48" target="QOJlggBWHbBiH2H2tHko-4">
          <mxGeometry relative="1" as="geometry">
            <mxPoint x="1341" y="-993" as="targetPoint" />
            <Array as="points">
              <mxPoint x="1341" y="-860" />
            </Array>
          </mxGeometry>
        </mxCell>
        <mxCell id="QOJlggBWHbBiH2H2tHko-57" value="new sso token / refresh sso token" style="edgeLabel;html=1;align=center;verticalAlign=middle;resizable=0;points=[];" vertex="1" connectable="0" parent="QOJlggBWHbBiH2H2tHko-56">
          <mxGeometry x="-0.2162" y="-1" relative="1" as="geometry">
            <mxPoint x="-106" y="11" as="offset" />
          </mxGeometry>
        </mxCell>
        <mxCell id="QOJlggBWHbBiH2H2tHko-66" value="&lt;div&gt;1. 사용자는 https://s1esp.com에서 S1ESP 시스템에 접속하여 로그인을 시도한다.&lt;/div&gt;&lt;div&gt;&lt;span style=&quot;white-space: normal;&quot;&gt;2. 로그인 요청은 S1ESP BE로 전달되며, 로그인이 성공하면 BE는 두 개의 토큰을 발급한다:&lt;/span&gt;&lt;/div&gt;&lt;div&gt;&lt;span style=&quot;white-space: normal;&quot;&gt;&amp;nbsp;-&amp;nbsp; Access Token (sso-token): 서명된 JWT 형식이며, 비교적 짧은 유효시간을 갖는다 (예: 10분).&lt;/span&gt;&lt;/div&gt;&lt;div&gt;&lt;span style=&quot;white-space: normal;&quot;&gt;&amp;nbsp;- Refresh Token (refresh-token): 장기 유효하며, HttpOnly + Secure + SameSite 설정이 적용된 쿠키에 저장된다.&lt;/span&gt;&lt;/div&gt;&lt;div&gt;&lt;span style=&quot;white-space: normal;&quot;&gt;3. S1ESP BE 개발자는 Access Token을 JWT 형식으로 생성하며, 아래와 같은 클레임을 포함한다:&lt;/span&gt;&lt;/div&gt;&lt;div&gt;&lt;span style=&quot;white-space: normal;&quot;&gt;&amp;nbsp;- consumer_id, manager_id, request_ip, exp (만료시간)&lt;/span&gt;&lt;/div&gt;&lt;div&gt;&lt;span style=&quot;white-space: normal;&quot;&gt;&amp;nbsp;-&amp;nbsp;서명 알고리즘은 RS256 권장 (공개키 기반 서명/검증)&lt;/span&gt;&lt;/div&gt;&lt;div&gt;&lt;span style=&quot;white-space: normal;&quot;&gt;&amp;nbsp;-&amp;nbsp;서명 시 서버 내의 private key를 사용하며, 외부 시스템에서는 공개키로 검증할 수 있게 제공&lt;/span&gt;&lt;/div&gt;&lt;div&gt;&lt;span style=&quot;white-space: normal;&quot;&gt;&amp;nbsp;-&amp;nbsp;토큰은 Set-Cookie를 통해 FE에 전달되며, Secure; SameSite=None; Domain=.s1esp.com 속성을 갖는다&lt;/span&gt;&lt;/div&gt;&lt;div&gt;&lt;span style=&quot;white-space: normal;&quot;&gt;4.Refresh Token은 UUID 또는 고유한 난수 값으로 생성되며, HttpOnly 쿠키로 저장된다:&lt;/span&gt;&lt;/div&gt;&lt;div&gt;&lt;span style=&quot;white-space: normal;&quot;&gt;&amp;nbsp;- 이 토큰은 사용자별로 Redis 또는 DB에 저장하여 서버가 유효성을 관리할 수 있게 한다.&lt;/span&gt;&lt;/div&gt;&lt;div&gt;&lt;span style=&quot;white-space: normal;&quot;&gt;&amp;nbsp;-&amp;nbsp;쿠키는 HttpOnly; Secure; SameSite=Strict or Lax; Domain=.s1esp.com 설정으로 클라이언트에서 접근할 수 없게 한다.&lt;/span&gt;&lt;/div&gt;&lt;div&gt;&lt;span style=&quot;white-space: normal;&quot;&gt;5. S1ESP FE는 access token의 exp 값을 기준으로 만료 임박 시점을 계산하고,&amp;nbsp;&lt;/span&gt;&lt;span style=&quot;background-color: transparent; color: light-dark(rgb(0, 0, 0), rgb(255, 255, 255));&quot;&gt;만료 1~2분 전에 /auth/refresh-token API를 호출하여 새로운 access token을 발급받는다.&lt;/span&gt;&lt;/div&gt;&lt;div&gt;&lt;span style=&quot;white-space: normal;&quot;&gt;6. /auth/refresh-token 요청 시, 브라우저는 refresh-token 쿠키를 자동으로 포함하며,&amp;nbsp;&lt;/span&gt;&lt;span style=&quot;background-color: transparent; color: light-dark(rgb(0, 0, 0), rgb(255, 255, 255));&quot;&gt;BE는 해당 토큰의 유효성을 확인한 뒤 새로운 JWT access token을 생성하여 다시 쿠키로 설정한다.&lt;/span&gt;&lt;/div&gt;&lt;div&gt;&lt;span style=&quot;white-space: normal;&quot;&gt;7. 이 갱신 루프는 주기적으로 반복되며, 사용자는 세션이 끊기는 불편 없이 로그인 상태를 유지할 수 있다.&lt;/span&gt;&lt;/div&gt;&lt;div&gt;&lt;span style=&quot;white-space: normal;&quot;&gt;8. 이후, S1ESP FE는 외부 시스템 화면인 https://3rd-party.s1esp.com을 iframe으로 삽입한다.&lt;/span&gt;&lt;/div&gt;&lt;div&gt;&lt;span style=&quot;white-space: normal;&quot;&gt;9. iframe으로 로딩된 외부 FE는 access token(sso-token)이 쿠키로 자동 포함된 상태에서&amp;nbsp;&lt;/span&gt;&lt;span style=&quot;background-color: transparent; color: light-dark(rgb(0, 0, 0), rgb(255, 255, 255));&quot;&gt;자신의 백엔드(3rd-party BE)에 필요한 API들을 호출한다.&lt;/span&gt;&lt;/div&gt;&lt;div&gt;&lt;span style=&quot;white-space: normal;&quot;&gt;10. 3rd-party BE는 access token을 수신하여 아래와 같은 검증 절차를 거친다:&lt;/span&gt;&lt;/div&gt;&lt;div&gt;&lt;span style=&quot;white-space: normal;&quot;&gt;&amp;nbsp;- JWT 서명을 S1ESP의 공개키로 검증한다.&lt;/span&gt;&lt;/div&gt;&lt;div&gt;&lt;span style=&quot;white-space: normal;&quot;&gt;&amp;nbsp;-&amp;nbsp;만료 시간(exp)이 현재 시간보다 이후인지 확인한다.&lt;/span&gt;&lt;/div&gt;&lt;div&gt;&lt;span style=&quot;white-space: normal;&quot;&gt;&amp;nbsp;- 클레임 정보 (consumer_id, manager_id, request_ip)를 기반으로 사용자를 조회하거나 자체 세션을 구성한다.&lt;/span&gt;&lt;/div&gt;&lt;div&gt;&lt;span style=&quot;white-space: normal;&quot;&gt;11. 검증이 성공하면, 3rd-party BE는 자체 인증 세션 또는 access token을 발급하고,&amp;nbsp;&lt;/span&gt;&lt;span style=&quot;background-color: transparent; color: light-dark(rgb(0, 0, 0), rgb(255, 255, 255));&quot;&gt;외부 FE는 해당 세션을 바탕으로 사용자 맞춤 화면을 렌더링한다.&lt;/span&gt;&lt;/div&gt;&lt;div&gt;&lt;span style=&quot;white-space: normal;&quot;&gt;12. 사용자가 로그아웃을 요청하는 경우, S1ESP BE는 다음을 수행한다:&lt;/span&gt;&lt;/div&gt;&lt;div&gt;&lt;span style=&quot;white-space: normal;&quot;&gt;&amp;nbsp;- 서버(DB 또는 Redis)에 저장된 refresh token을 무효화하거나 삭제한다.&lt;/span&gt;&lt;/div&gt;&lt;div&gt;&lt;span style=&quot;white-space: normal;&quot;&gt;&amp;nbsp;-&amp;nbsp;클라이언트 측에 저장된 sso-token, refresh-token 쿠키 삭제 지시를 응답에 포함한다.&lt;/span&gt;&lt;/div&gt;&lt;div&gt;&lt;span style=&quot;white-space: normal;&quot;&gt;&amp;nbsp;-&amp;nbsp;이후에는 어떠한 요청도 인증에 실패하며, 재로그인을 요구하게 된다.&lt;/span&gt;&lt;/div&gt;" style="text;html=1;align=left;verticalAlign=middle;whiteSpace=wrap;rounded=0;" vertex="1" parent="1">
          <mxGeometry x="28" y="-574" width="925" height="509" as="geometry" />
        </mxCell>
      </root>
    </mxGraphModel>
  </diagram>
</mxfile>
